<mxfile host="app.diagrams.net" agent="Mozilla/5.0 (Macintosh; Intel Mac OS X 10_15_7) AppleWebKit/537.36 (KHTML, like Gecko) Chrome/130.0.0.0 Safari/537.36" version="24.8.3">
  <diagram name="Page-1" id="-OZREHYveCwlaOD1ZNnu">
    <mxGraphModel dx="950" dy="766" grid="1" gridSize="10" guides="1" tooltips="1" connect="1" arrows="1" fold="1" page="1" pageScale="1" pageWidth="850" pageHeight="1100" math="0" shadow="0">
      <root>
        <mxCell id="0" />
        <mxCell id="1" parent="0" />
        <mxCell id="9OKB_vlP8tsikDt12poi-6" style="edgeStyle=orthogonalEdgeStyle;rounded=0;orthogonalLoop=1;jettySize=auto;html=1;exitX=0;exitY=0.5;exitDx=0;exitDy=0;" edge="1" parent="1" source="9OKB_vlP8tsikDt12poi-1" target="9OKB_vlP8tsikDt12poi-3">
          <mxGeometry relative="1" as="geometry" />
        </mxCell>
        <mxCell id="9OKB_vlP8tsikDt12poi-1" value="tfrs-master" style="ellipse;whiteSpace=wrap;html=1;aspect=fixed;" vertex="1" parent="1">
          <mxGeometry x="150" y="350" width="80" height="80" as="geometry" />
        </mxCell>
        <mxCell id="9OKB_vlP8tsikDt12poi-7" style="edgeStyle=orthogonalEdgeStyle;rounded=0;orthogonalLoop=1;jettySize=auto;html=1;entryX=0.5;entryY=1;entryDx=0;entryDy=0;" edge="1" parent="1" source="9OKB_vlP8tsikDt12poi-2" target="9OKB_vlP8tsikDt12poi-1">
          <mxGeometry relative="1" as="geometry" />
        </mxCell>
        <mxCell id="9OKB_vlP8tsikDt12poi-2" value="tfrs-release-2.22.0" style="ellipse;whiteSpace=wrap;html=1;aspect=fixed;" vertex="1" parent="1">
          <mxGeometry x="230" y="510" width="80" height="80" as="geometry" />
        </mxCell>
        <mxCell id="9OKB_vlP8tsikDt12poi-3" value="tfrs-master" style="ellipse;whiteSpace=wrap;html=1;aspect=fixed;" vertex="1" parent="1">
          <mxGeometry x="10" y="350" width="80" height="80" as="geometry" />
        </mxCell>
        <mxCell id="9OKB_vlP8tsikDt12poi-8" value="prod" style="text;html=1;align=center;verticalAlign=middle;whiteSpace=wrap;rounded=0;" vertex="1" parent="1">
          <mxGeometry x="160" y="320" width="60" height="30" as="geometry" />
        </mxCell>
        <mxCell id="9OKB_vlP8tsikDt12poi-11" style="edgeStyle=orthogonalEdgeStyle;rounded=0;orthogonalLoop=1;jettySize=auto;html=1;exitX=0;exitY=0.5;exitDx=0;exitDy=0;entryX=1;entryY=0.5;entryDx=0;entryDy=0;" edge="1" parent="1" source="9OKB_vlP8tsikDt12poi-9" target="9OKB_vlP8tsikDt12poi-2">
          <mxGeometry relative="1" as="geometry" />
        </mxCell>
        <mxCell id="9OKB_vlP8tsikDt12poi-9" value="" style="ellipse;whiteSpace=wrap;html=1;aspect=fixed;" vertex="1" parent="1">
          <mxGeometry x="360" y="510" width="80" height="80" as="geometry" />
        </mxCell>
        <mxCell id="9OKB_vlP8tsikDt12poi-12" style="edgeStyle=orthogonalEdgeStyle;rounded=0;orthogonalLoop=1;jettySize=auto;html=1;exitX=0;exitY=0.5;exitDx=0;exitDy=0;entryX=1;entryY=0.5;entryDx=0;entryDy=0;" edge="1" parent="1" source="9OKB_vlP8tsikDt12poi-10" target="9OKB_vlP8tsikDt12poi-9">
          <mxGeometry relative="1" as="geometry" />
        </mxCell>
        <mxCell id="9OKB_vlP8tsikDt12poi-10" value="" style="ellipse;whiteSpace=wrap;html=1;aspect=fixed;" vertex="1" parent="1">
          <mxGeometry x="490" y="510" width="80" height="80" as="geometry" />
        </mxCell>
        <mxCell id="9OKB_vlP8tsikDt12poi-14" style="edgeStyle=orthogonalEdgeStyle;rounded=0;orthogonalLoop=1;jettySize=auto;html=1;exitX=0.5;exitY=0;exitDx=0;exitDy=0;entryX=0.5;entryY=1;entryDx=0;entryDy=0;" edge="1" parent="1" source="9OKB_vlP8tsikDt12poi-13" target="9OKB_vlP8tsikDt12poi-10">
          <mxGeometry relative="1" as="geometry">
            <Array as="points">
              <mxPoint x="530" y="600" />
              <mxPoint x="530" y="600" />
            </Array>
          </mxGeometry>
        </mxCell>
        <mxCell id="9OKB_vlP8tsikDt12poi-13" value="jan-2025" style="ellipse;whiteSpace=wrap;html=1;aspect=fixed;" vertex="1" parent="1">
          <mxGeometry x="490" y="690" width="80" height="80" as="geometry" />
        </mxCell>
        <mxCell id="9OKB_vlP8tsikDt12poi-15" value="" style="ellipse;whiteSpace=wrap;html=1;aspect=fixed;" vertex="1" parent="1">
          <mxGeometry x="810" y="685" width="80" height="80" as="geometry" />
        </mxCell>
        <mxCell id="9OKB_vlP8tsikDt12poi-16" value="" style="ellipse;whiteSpace=wrap;html=1;aspect=fixed;" vertex="1" parent="1">
          <mxGeometry x="640" y="680" width="90" height="90" as="geometry" />
        </mxCell>
        <mxCell id="9OKB_vlP8tsikDt12poi-17" style="edgeStyle=orthogonalEdgeStyle;rounded=0;orthogonalLoop=1;jettySize=auto;html=1;entryX=0.991;entryY=0.438;entryDx=0;entryDy=0;entryPerimeter=0;" edge="1" parent="1" source="9OKB_vlP8tsikDt12poi-16" target="9OKB_vlP8tsikDt12poi-13">
          <mxGeometry relative="1" as="geometry" />
        </mxCell>
        <mxCell id="9OKB_vlP8tsikDt12poi-18" style="edgeStyle=orthogonalEdgeStyle;rounded=0;orthogonalLoop=1;jettySize=auto;html=1;entryX=1.015;entryY=0.454;entryDx=0;entryDy=0;entryPerimeter=0;" edge="1" parent="1" source="9OKB_vlP8tsikDt12poi-15" target="9OKB_vlP8tsikDt12poi-16">
          <mxGeometry relative="1" as="geometry" />
        </mxCell>
        <mxCell id="9OKB_vlP8tsikDt12poi-19" value="lcfs-release-0.2.0" style="ellipse;whiteSpace=wrap;html=1;aspect=fixed;" vertex="1" parent="1">
          <mxGeometry x="800" y="920" width="80" height="80" as="geometry" />
        </mxCell>
        <mxCell id="9OKB_vlP8tsikDt12poi-25" value="h1" style="ellipse;whiteSpace=wrap;html=1;aspect=fixed;" vertex="1" parent="1">
          <mxGeometry x="310" y="295" width="80" height="80" as="geometry" />
        </mxCell>
        <mxCell id="9OKB_vlP8tsikDt12poi-26" style="edgeStyle=orthogonalEdgeStyle;rounded=0;orthogonalLoop=1;jettySize=auto;html=1;exitX=0;exitY=0.5;exitDx=0;exitDy=0;entryX=0.957;entryY=0.447;entryDx=0;entryDy=0;entryPerimeter=0;" edge="1" parent="1" source="9OKB_vlP8tsikDt12poi-25" target="9OKB_vlP8tsikDt12poi-1">
          <mxGeometry relative="1" as="geometry" />
        </mxCell>
        <mxCell id="9OKB_vlP8tsikDt12poi-28" style="edgeStyle=orthogonalEdgeStyle;rounded=0;orthogonalLoop=1;jettySize=auto;html=1;exitX=0;exitY=0.5;exitDx=0;exitDy=0;entryX=1;entryY=0.5;entryDx=0;entryDy=0;" edge="1" parent="1" source="9OKB_vlP8tsikDt12poi-27" target="9OKB_vlP8tsikDt12poi-10">
          <mxGeometry relative="1" as="geometry" />
        </mxCell>
        <mxCell id="9OKB_vlP8tsikDt12poi-27" value="h1" style="ellipse;whiteSpace=wrap;html=1;aspect=fixed;" vertex="1" parent="1">
          <mxGeometry x="630" y="510" width="80" height="80" as="geometry" />
        </mxCell>
        <mxCell id="9OKB_vlP8tsikDt12poi-30" style="edgeStyle=orthogonalEdgeStyle;rounded=0;orthogonalLoop=1;jettySize=auto;html=1;exitX=0;exitY=0.5;exitDx=0;exitDy=0;" edge="1" parent="1" source="9OKB_vlP8tsikDt12poi-29" target="9OKB_vlP8tsikDt12poi-27">
          <mxGeometry relative="1" as="geometry" />
        </mxCell>
        <mxCell id="9OKB_vlP8tsikDt12poi-29" value="" style="ellipse;whiteSpace=wrap;html=1;aspect=fixed;" vertex="1" parent="1">
          <mxGeometry x="760" y="510" width="80" height="80" as="geometry" />
        </mxCell>
      </root>
    </mxGraphModel>
  </diagram>
</mxfile>
